<svg width="1560" height="290" viewBox="0 0 1560 290" fill="none" xmlns="http://www.w3.org/2000/svg">
<path fill-rule="evenodd" clip-rule="evenodd" d="M350 144.5C350 99.4888 386.489 63 431.5 63C476.511 63 513 99.4888 513 144.5C513 189.511 476.511 226 431.5 226C414.215 226 398.188 220.619 385 211.442V258H350V144.5ZM385 144.5C385 170.181 405.819 191 431.5 191C457.181 191 478 170.181 478 144.5C478 118.819 457.181 98 431.5 98C405.819 98 385 118.819 385 144.5Z" fill="#171717"/>
<path fill-rule="evenodd" clip-rule="evenodd" d="M704 211.442C690.812 220.619 674.785 226 657.5 226C612.489 226 576 189.511 576 144.5C576 99.4888 612.489 63 657.5 63C674.785 63 690.812 68.3807 704 77.5584V63H739V226H704V211.442ZM704 144.5C704 118.819 683.181 98 657.5 98C631.819 98 611 118.819 611 144.5C611 170.181 631.819 191 657.5 191C683.181 191 704 170.181 704 144.5Z" fill="#171717"/>
<path fill-rule="evenodd" clip-rule="evenodd" d="M881 63V112.5C881 138.181 860.181 159 834.5 159C808.819 159 788 138.181 788 112.5V63H753V112.5C753 157.511 789.489 194 834.5 194C851.743 194 867.735 188.645 880.904 179.508C879.354 203.787 859.171 223 834.5 223C821.655 223 810.054 217.814 801.62 209.38L789.245 197.006L764.496 221.755L776.871 234.129C791.6 248.859 811.999 258 834.5 258C879.511 258 916 221.511 916 176.5V63H881Z" fill="#171717"/>
<path fill-rule="evenodd" clip-rule="evenodd" d="M965 226V176.5C965 150.819 985.819 130 1011.5 130C1037.18 130 1058 150.819 1058 176.5V226H1093V176.5C1093 131.489 1056.51 95 1011.5 95C994.215 95 978.188 100.381 965 109.558V31H930V226H965Z" fill="#171717"/>
<path fill-rule="evenodd" clip-rule="evenodd" d="M1319 226V144.5C1319 118.819 1339.82 98 1365.5 98H1383V63H1365.5C1348.22 63 1332.19 68.3807 1319 77.5584V63H1284V226H1319Z" fill="#171717"/>
<path fill-rule="evenodd" clip-rule="evenodd" d="M562 31V114.5H544.5H527V31H562ZM544.5 114.5C527 114.5 527 114.499 527 114.5V226H562V114.5C562 114.499 562 114.5 544.5 114.5Z" fill="#171717"/>
<path fill-rule="evenodd" clip-rule="evenodd" d="M1270 144.5C1270 99.4888 1233.51 63 1188.5 63C1143.49 63 1107 99.4888 1107 144.5C1107 189.511 1143.49 226 1188.5 226C1211 226 1231.4 216.859 1246.13 202.129L1258.5 189.755L1233.75 165.006L1221.38 177.38C1212.95 185.814 1201.35 191 1188.5 191C1169.01 191 1152.32 179.008 1145.41 162H1270V144.5ZM1145.41 127C1152.32 109.992 1169.01 98 1188.5 98C1207.99 98 1224.68 109.992 1231.59 127H1145.41Z" fill="#171717"/>
<path fill-rule="evenodd" clip-rule="evenodd" d="M1560 144.5C1560 99.4888 1523.51 63 1478.5 63C1433.49 63 1397 99.4888 1397 144.5C1397 189.511 1433.49 226 1478.5 226C1501 226 1521.4 216.859 1536.13 202.129L1548.5 189.755L1523.75 165.006L1511.38 177.38C1502.95 185.814 1491.35 191 1478.5 191C1459.01 191 1442.32 179.008 1435.41 162H1560V144.5ZM1435.41 127C1442.32 109.992 1459.01 98 1478.5 98C1497.99 98 1514.68 109.992 1521.59 127H1435.41Z" fill="#171717"/>
<path fill-rule="evenodd" clip-rule="evenodd" d="M129.773 278.551C144.995 293.816 169.675 293.816 184.897 278.551L161.113 254.7L184.897 278.551L310 153.095L260.53 103.486L157.335 206.971L113.856 163.37H153.337C174.865 163.37 192.316 145.869 192.316 124.281V-1.27258e-05H122.354V93.2111H39.0568C4.33046 93.2111 -13.0604 135.315 11.4947 159.939L129.773 278.551Z" fill="#171717"/>
</svg>
